<?xml version="1.0" encoding="UTF-8" standalone="no"?>
<!DOCTYPE svg PUBLIC "-//W3C//DTD SVG 1.1//EN" "http://www.w3.org/Graphics/SVG/1.1/DTD/svg11.dtd">
<!-- Created with Vectornator (http://vectornator.io/) -->
<svg height="100%" stroke-miterlimit="10" style="fill-rule:nonzero;clip-rule:evenodd;stroke-linecap:round;stroke-linejoin:round;" version="1.1" viewBox="0 0 1024 1024" width="100%" xml:space="preserve" xmlns="http://www.w3.org/2000/svg" xmlnsXlink="http://www.w3.org/1999/xlink">
<defs/>
<g id="Layer-1">
<path d="M327.804 226.652C327.804 217.815 334.968 210.652 343.804 210.652L663.304 210.652C672.141 210.652 679.304 217.815 679.304 226.652L679.304 384.652C679.304 393.488 672.141 400.652 663.304 400.652L343.804 400.652C334.968 400.652 327.804 393.488 327.804 384.652L327.804 226.652Z" fill="#3e68ff" fill-rule="nonzero" opacity="1" stroke="#2c4bbc" stroke-linecap="butt" stroke-linejoin="round" stroke-width="20"/>
<path d="M190.819 480.17C190.819 472.896 196.402 466.999 203.29 466.999L452.319 466.999C459.207 466.999 464.79 472.896 464.79 480.17L464.79 610.232C464.79 617.507 459.207 623.403 452.319 623.403L203.29 623.403C196.402 623.403 190.819 617.507 190.819 610.232L190.819 480.17Z" fill="#3e68ff" fill-rule="nonzero" opacity="1" stroke="#2c4bbc" stroke-linecap="butt" stroke-linejoin="round" stroke-width="20" />
<path d="M542.319 480.17C542.319 472.896 547.902 466.999 554.79 466.999L803.819 466.999C810.707 466.999 816.29 472.896 816.29 480.17L816.29 610.232C816.29 617.507 810.707 623.403 803.819 623.403L554.79 623.403C547.902 623.403 542.319 617.507 542.319 610.232L542.319 480.17Z" fill="#3e68ff" fill-rule="nonzero" opacity="1" stroke="#2c4bbc" stroke-linecap="butt" stroke-linejoin="round" stroke-width="20"/>
<path d="M67.9225 702.602C67.9225 697.011 71.4914 692.478 75.8939 692.478L235.073 692.478C239.476 692.478 243.045 697.011 243.045 702.602L243.045 802.578C243.045 808.17 239.476 812.702 235.073 812.702L75.8939 812.702C71.4914 812.702 67.9225 808.17 67.9225 802.578L67.9225 702.602Z" fill="#3e68ff" fill-rule="nonzero" opacity="1" stroke="#2c4bbc" stroke-linecap="butt" stroke-linejoin="round" stroke-width="20" />
<path d="M292.469 703.248C292.469 697.657 296.038 693.124 300.441 693.124L459.62 693.124C464.023 693.124 467.592 697.657 467.592 703.248L467.592 803.224C467.592 808.816 464.023 813.348 459.62 813.348L300.441 813.348C296.038 813.348 292.469 808.816 292.469 803.224L292.469 703.248Z" fill="#3e68ff" fill-rule="nonzero" opacity="1" stroke="#2c4bbc" stroke-linecap="butt" stroke-linejoin="round" stroke-width="20" />
<path d="M556.408 702.602C556.408 697.011 559.977 692.478 564.38 692.478L723.559 692.478C727.962 692.478 731.531 697.011 731.531 702.602L731.531 802.578C731.531 808.17 727.962 812.702 723.559 812.702L564.38 812.702C559.977 812.702 556.408 808.17 556.408 802.578L556.408 702.602Z" fill="#3e68ff" fill-rule="nonzero" opacity="1" stroke="#2c4bbc" stroke-linecap="butt" stroke-linejoin="round" stroke-width="20" />
<path d="M780.955 703.248C780.955 697.657 784.524 693.124 788.927 693.124L948.106 693.124C952.509 693.124 956.078 697.657 956.078 703.248L956.078 803.224C956.078 808.816 952.509 813.348 948.106 813.348L788.927 813.348C784.524 813.348 780.955 808.816 780.955 803.224L780.955 703.248Z" fill="#3e68ff" fill-rule="nonzero" opacity="1" stroke="#2c4bbc" stroke-linecap="butt" stroke-linejoin="round" stroke-width="20" />
</g>
</svg>
